<svg xmlns="http://www.w3.org/2000/svg" xmlns:xlink="http://www.w3.org/1999/xlink" viewBox="0 0 1280 1280"><defs><style>.cls-1{fill:#f69d51;}.cls-2{fill:url(#名称未設定グラデーション_16);}.cls-3{fill:none;}</style><linearGradient id="名称未設定グラデーション_16" x1="64" y1="640" x2="1024" y2="640" gradientUnits="userSpaceOnUse"><stop offset="0" stop-color="#e14343"/><stop offset="1" stop-color="#e14343"/></linearGradient></defs><title>logo_membar_primary</title><g id="レイヤー_2" data-name="レイヤー 2"><g id="レイヤー_1-2" data-name="レイヤー 1"><path class="cls-1" d="M928,216A262.62,262.62,0,0,0,720,317.4l-13.57,17.34-18.43-12A264,264,0,0,0,280,544V800a72,72,0,0,0,144,0V544a120,120,0,0,1,240,0V736a72,72,0,0,0,144,0V480a120,120,0,0,1,240,0V992a72,72,0,0,0,144,0V480A264,264,0,0,0,928,216Z"/><path class="cls-2" d="M928,408a72.08,72.08,0,0,0-72,72V736a120,120,0,0,1-240,0V544a72,72,0,0,0-144,0V800a120,120,0,0,1-240,0V288a72,72,0,0,0-144,0V800A264,264,0,0,0,560,962.6l13.57-17.34,18.43,12A264,264,0,0,0,1000,736V480A72.08,72.08,0,0,0,928,408Z"/><rect class="cls-3" width="1280" height="1280"/></g></g></svg>