<svg xmlns="http://www.w3.org/2000/svg" viewBox="0 0 5000 1280"><defs><style>.cls-1{fill:#35495e;}.cls-2{fill:none;}</style></defs><title>logo_normal_text</title><g id="レイヤー_2" data-name="レイヤー 2"><g id="レイヤー_1-2" data-name="レイヤー 1"><path class="cls-1" d="M1604.3,585.5a217.08,217.08,0,0,0-115.45-114.73,216.79,216.79,0,0,0-84.43-16.93H1224.91A217,217,0,0,0,1025,585.5a212.9,212.9,0,0,0-17,83.89V847.77a214.17,214.17,0,0,0,63.53,152.42,216.89,216.89,0,0,0,153.39,63.13h290.87c37.12,0,67.88-29.5,68.16-66.39.28-37.17-30-67.4-67.32-67.4H1262.31a119.64,119.64,0,0,1-114.69-84.83,14.91,14.91,0,0,1,14.31-19.23H1554c37.18,0,67.32-29.94,67.32-66.89V669.39A212.9,212.9,0,0,0,1604.3,585.5ZM1467.4,691.69H1161.93a14.91,14.91,0,0,1-14.31-19.22,119.63,119.63,0,0,1,114.69-84.84H1367a119.63,119.63,0,0,1,114.69,84.84A14.91,14.91,0,0,1,1467.4,691.69Z"/><path class="cls-1" d="M2339.41,453.84a246.06,246.06,0,0,0-194.47,94.22l-12.69,16.1L2115,553a248.06,248.06,0,0,0-309.18,32.15,242.92,242.92,0,0,0-72.29,173.44V996.43c0,36.88,30.2,66.89,67.32,66.89s67.32-30,67.32-66.89V758.58A110.64,110.64,0,0,1,1901,679.75a112.69,112.69,0,0,1,158.67,0,110.68,110.68,0,0,1,32.86,78.83V937c0,36.89,30.2,66.9,67.32,66.9s67.32-30,67.32-66.9V699.12a110.68,110.68,0,0,1,32.86-78.83,112.7,112.7,0,0,1,158.67,0,110.69,110.69,0,0,1,32.87,78.84v475.69c0,36.88,30.19,66.89,67.31,66.89s67.32-30,67.32-66.89V699.12A242.9,242.9,0,0,0,2514,525.68,246,246,0,0,0,2339.41,453.84Z"/><rect class="cls-1" x="2698.44" y="216" width="134.64" height="668.94" rx="67.21"/><path class="cls-1" d="M2878,282.89c0,36.89,30.2,66.9,67.32,66.9h239.35A112.09,112.09,0,0,1,3264,382.44a111,111,0,0,1,0,157.67,112,112,0,0,1-79.34,32.66H3005.12c-37.12,0-67.32,30-67.32,66.89s30.2,66.89,67.32,66.89h239.35a112.07,112.07,0,0,1,79.34,32.66,111,111,0,0,1,0,157.67,112.11,112.11,0,0,1-79.34,32.65H2765.76c-37.12,0-67.32,30-67.32,66.9s30.2,66.89,67.32,66.89h478.71A246,246,0,0,0,3419,991.48,242.91,242.91,0,0,0,3491.31,818c0-75.93-34.56-146.36-94.81-193.24l-16.21-12.61,11.24-17.13a244.11,244.11,0,0,0-32.36-307.22A246,246,0,0,0,3184.63,216H2945.28C2908.16,216,2878,246,2878,282.89Z"/><path class="cls-1" d="M4216.85,758.58V520.74c0-36.95-30.14-66.9-67.32-66.9h0c-37.18,0-67.31,30-67.31,66.9V810.65c0,65.66-53.6,118.88-119.68,118.88H3857.82c-66.1,0-119.68-53.24-119.68-118.92V706.55c0-65.68,53.58-118.92,119.68-118.92h82.28c37.18,0,67.32-30,67.32-66.89s-30.14-66.9-67.32-66.9H3820.42A217,217,0,0,0,3620.54,585.5a213.08,213.08,0,0,0-17,83.89V847.77A214.12,214.12,0,0,0,3667,1000.19a216.84,216.84,0,0,0,153.38,63.13h179.52a216.74,216.74,0,0,0,84.42-16.93q7.16-3,14-6.49a67.32,67.32,0,0,0,51.14,23.42h0c37.18,0,67.32-30,67.32-66.89V758.58Z"/><path class="cls-1" d="M4901.37,606.24c-84.69-145.76-272.25-195.69-418.93-111.54q-10.38,6-20.11,12.58a67.24,67.24,0,0,0-66-53.44c-37.18,0-67.32,30-67.32,66.9V996.43c0,36.94,30.14,66.89,67.32,66.89s67.32-30,67.32-66.89V758.62l0,0a170.69,170.69,0,0,1,86.05-148c82.28-47.21,187.5-19.19,235,62.57a67.54,67.54,0,0,0,91.95,24.49A66.68,66.68,0,0,0,4901.37,606.24Z"/><path class="cls-1" d="M895.79,412.09c0-13.48-16.6-20-25.87-10.17l-88.53,93.84a74.08,74.08,0,0,0-20.23,50.84V996.43c0,38.33,32.61,69.23,71.71,66.75,33.55-2.13,60.64-29,62.78-62.38.1-1.47.13-2.93.13-4.37Z"/><path class="cls-1" d="M876.08,235.59a67.71,67.71,0,0,0-95.21,0c-1,.95-261.71,277.39-261.71,277.39a37.54,37.54,0,0,1-54.56,0S203.84,236.54,202.89,235.59a67.71,67.71,0,0,0-95.21,0A66.48,66.48,0,0,0,88,282.93s0,716.4.11,717.87c2.14,33.33,29.24,60.25,62.78,62.38,39.1,2.48,71.7-28.42,71.7-66.75l0-506.84c0-13.47,16.59-20,25.87-10.16L441.54,684.06c.88,1,1.79,2,2.74,2.9a67,67,0,0,0,27.32,16.46c1,.32,2,.61,3.09.88.68.18,1.36.35,2,.5a68.26,68.26,0,0,0,30.3,0c.68-.15,1.36-.32,2-.5,1-.27,2.07-.56,3.09-.88A67,67,0,0,0,539.48,687c.95-.94,1.86-1.92,2.74-2.9L876.08,330.19A66.68,66.68,0,0,0,876.08,235.59Z"/><rect class="cls-2" width="5000" height="1280"/></g></g></svg>