<svg xmlns="http://www.w3.org/2000/svg" xmlns:xlink="http://www.w3.org/1999/xlink" viewBox="0 0 5304 1280"><defs><style>.cls-1{fill:#35495e;}.cls-2{fill:url(#名称未設定グラデーション_16);}.cls-3{fill:none;}</style><linearGradient id="名称未設定グラデーション_16" x1="1071" y1="736" x2="1729" y2="736" gradientUnits="userSpaceOnUse"><stop offset="0" stop-color="#e14343"/><stop offset="1" stop-color="#e14343"/></linearGradient></defs><title>アセット 14</title><g id="レイヤー_2" data-name="レイヤー 2"><g id="レイヤー_1-2" data-name="レイヤー 1"><path class="cls-1" d="M1660.05,476A231.18,231.18,0,0,0,1496,408H1304a231.78,231.78,0,0,0-232,232V832a231.78,231.78,0,0,0,232,232h312a72,72,0,0,0,0-144H1344a128,128,0,0,1-127-112h439a72,72,0,0,0,72-72h0V640a231.18,231.18,0,0,0-68-164ZM1344,552h112a128,128,0,0,1,127,112H1217A128,128,0,0,1,1344,552Z"/><path class="cls-2" d="M1496,408a231.78,231.78,0,0,1,232,232v96a72,72,0,0,1-72,72H1217a128,128,0,0,0,127,112h272a72,72,0,0,1,0,144H1304a231.78,231.78,0,0,1-232-232V640a231.78,231.78,0,0,1,232-232h192M1217,664h366a128,128,0,0,0-127-112H1344a128,128,0,0,0-127,112m279-257H1304a232.78,232.78,0,0,0-233,233V832a232.78,232.78,0,0,0,233,233h312a73,73,0,0,0,0-146H1344a127.12,127.12,0,0,1-125.87-110H1656a73.09,73.09,0,0,0,73-73V640a232.78,232.78,0,0,0-233-233ZM1218.13,663A127.12,127.12,0,0,1,1344,553h112a127.12,127.12,0,0,1,125.87,110Z"/><path class="cls-1" d="M2497,408a262.62,262.62,0,0,0-208,101.4l-13.57,17.34-18.43-12A264,264,0,0,0,1849,736V992a72,72,0,0,0,144,0V736a120,120,0,0,1,240,0V928a72,72,0,0,0,144,0V672a120,120,0,0,1,240,0V992a72,72,0,0,0,144,0V672a264,264,0,0,0-264-264Z"/><path class="cls-1" d="M3594.6,592l-17.34-13.57,12-18.43A264,264,0,0,0,3368,152H2952a72,72,0,0,0-72,72V992a72.08,72.08,0,0,0,72,72h480a264,264,0,0,0,162.6-472ZM3368,296a120,120,0,0,1,0,240H3024V296h344Zm148.85,588.85A119.47,119.47,0,0,1,3432,920H3024V680h408a120,120,0,0,1,84.85,204.85Z"/><path class="cls-1" d="M4472,736V480a72,72,0,0,0-72-72h0a72,72,0,0,0-72,72v312a128,128,0,0,1-128,128H4088a128,128,0,0,1-128-128V680a128,128,0,0,1,128-128h136a72,72,0,0,0,0-144H4048a231.78,231.78,0,0,0-232,232V832a231.78,231.78,0,0,0,232,232h192a230.57,230.57,0,0,0,90.3-18.22q7.65-3.24,15-7A71.83,71.83,0,0,0,4400,1064h0a72,72,0,0,0,72-72V736h0Z"/><path class="cls-1" d="M5204.11,572C5113.54,415.15,4912.93,361.4,4756.05,452q-11.1,6.42-21.51,13.54A72,72,0,0,0,4664,408h0a72,72,0,0,0-72,72V992a72,72,0,0,0,72,72h0a72,72,0,0,0,72-72V736l0,0a183.94,183.94,0,0,1,92-159.32c88-50.81,200.54-20.66,251.35,67.35a72,72,0,0,0,124.71-72Z"/><path class="cls-1" d="M952,224h0a72,72,0,0,0-122.88-50.91c-1,1-2,2.06-2.93,3.12L520,502.77,213.84,176.19c-.94-1.06-1.91-2.1-2.93-3.12A72,72,0,0,0,88,224h0V992h0a72,72,0,0,0,144,0h0V406L466.16,655.77c.94,1.06,1.91,2.11,2.93,3.13a72.08,72.08,0,0,0,101.82,0c1-1,2-2.07,2.93-3.13L808,406V992h0a72,72,0,0,0,144,0h0Z"/><rect class="cls-3" width="5304" height="1280"/></g></g></svg>