<?xml version="1.0" standalone="no"?>
<!DOCTYPE svg PUBLIC "-//W3C//DTD SVG 20010904//EN"
 "http://www.w3.org/TR/2001/REC-SVG-20010904/DTD/svg10.dtd">
<svg version="1.0" xmlns="http://www.w3.org/2000/svg"
 width="1280.000000pt" height="1280.000000pt" viewBox="0 0 1280.000000 1280.000000"
 preserveAspectRatio="xMidYMid meet">
<metadata>
Created by potrace 1.11, written by Peter Selinger 2001-2013
</metadata>
<g transform="translate(0.000000,1280.000000) scale(0.100000,-0.100000)"
fill="#000000" stroke="none">
<path d="M1499 10636 c-2 -2 -20 -7 -41 -10 -214 -34 -429 -208 -521 -423 -62
-145 -58 47 -55 -2948 2 -1502 6 -2739 10 -2750 3 -11 9 -45 13 -75 17 -140
87 -429 116 -482 5 -10 9 -27 9 -37 0 -11 5 -23 10 -26 6 -3 10 -12 10 -20 0
-25 108 -255 172 -368 68 -119 189 -296 259 -379 49 -58 287 -299 334 -338
232 -193 501 -350 780 -456 68 -25 209 -70 250 -79 11 -2 29 -6 40 -9 102 -24
156 -36 190 -41 23 -3 52 -7 65 -10 139 -27 608 -27 756 -1 11 2 37 6 59 10
74 12 229 48 300 68 39 11 70 20 70 19 0 -1 36 12 81 28 476 174 864 454 1186
856 66 83 126 156 133 164 12 12 22 9 67 -21 161 -107 298 -187 425 -249 78
-38 145 -69 149 -69 3 0 49 -16 102 -36 182 -68 414 -121 622 -142 151 -15
567 -7 654 13 23 5 60 12 116 21 19 3 53 10 75 15 22 5 51 12 65 15 64 13 257
76 357 118 334 136 603 315 858 571 132 132 157 159 231 255 266 341 452 763
519 1180 4 25 9 52 10 61 17 88 20 372 20 1624 0 1391 -1 1452 -19 1510 -21
67 -80 191 -102 212 -8 8 -14 17 -14 21 0 13 -95 109 -144 146 -242 183 -585
193 -836 25 -152 -102 -258 -255 -307 -446 -8 -31 -11 -489 -16 -1918 -2 -522
-6 -959 -9 -970 -3 -11 -9 -40 -13 -65 -4 -25 -18 -79 -32 -120 -148 -448
-518 -759 -983 -828 -59 -8 -251 -8 -315 1 -108 15 -132 20 -218 49 -301 99
-561 325 -705 614 -36 71 -87 221 -95 279 -4 22 -10 51 -13 65 -4 14 -9 320
-11 680 -8 1558 -8 1559 -30 1625 -23 68 -78 182 -99 202 -8 8 -14 17 -14 21
0 13 -95 109 -144 146 -128 97 -254 139 -421 140 -127 1 -163 -3 -242 -30
-194 -66 -341 -199 -428 -387 -68 -148 -65 -73 -68 -1617 -1 -767 -5 -1404 -9
-1415 -3 -11 -8 -38 -12 -60 -14 -82 -60 -210 -110 -308 -144 -283 -383 -488
-695 -597 -35 -12 -77 -24 -95 -27 -17 -2 -38 -6 -46 -9 -52 -18 -296 -25
-398 -11 -168 23 -358 95 -482 182 -27 19 -52 35 -55 35 -10 0 -71 55 -152
137 -202 205 -325 482 -339 763 -2 41 -3 1245 -4 2675 -1 2904 6 2658 -73
2828 -22 48 -43 87 -48 87 -4 0 -10 8 -13 18 -8 25 -93 113 -150 156 -63 48
-164 98 -241 121 -54 16 -284 32 -296 21z"/>
<path d="M9079 10636 c-2 -2 -40 -7 -84 -11 -44 -3 -89 -8 -100 -11 -23 -4
-65 -12 -115 -20 -19 -3 -53 -10 -75 -15 -22 -5 -51 -12 -65 -15 -64 -13 -257
-77 -361 -119 -323 -132 -604 -319 -854 -569 -122 -122 -173 -181 -329 -380
-15 -20 -31 -36 -35 -36 -3 0 -57 34 -120 75 -62 41 -115 75 -118 75 -3 0 -17
8 -31 19 -43 30 -230 125 -322 164 -200 83 -419 147 -597 172 -21 3 -43 8 -50
10 -33 11 -208 20 -388 20 -230 0 -350 -10 -500 -42 -38 -8 -81 -17 -94 -19
-14 -3 -28 -7 -31 -9 -4 -2 -20 -6 -37 -9 -96 -17 -370 -119 -510 -189 -181
-92 -394 -232 -533 -352 -66 -56 -276 -270 -316 -320 -21 -27 -41 -52 -44 -55
-63 -63 -204 -285 -290 -455 -121 -240 -194 -463 -244 -740 -30 -164 -31 -218
-31 -1670 0 -1411 1 -1472 19 -1530 21 -67 80 -191 102 -212 8 -8 14 -17 14
-21 0 -13 95 -109 144 -146 242 -183 585 -193 836 -25 156 104 279 288 306
456 3 20 7 45 10 56 2 12 4 633 4 1381 1 1532 -2 1450 73 1671 68 201 227 416
412 556 120 91 332 187 470 213 17 3 46 9 65 12 80 15 293 11 393 -7 160 -30
324 -95 437 -174 27 -19 52 -35 55 -35 10 0 71 -55 152 -137 171 -174 277
-380 323 -628 17 -93 19 -175 20 -1152 0 -579 3 -1059 5 -1065 2 -7 6 -27 9
-45 16 -115 90 -261 183 -359 241 -255 644 -296 937 -95 126 87 239 247 281
398 3 12 9 32 12 45 8 26 11 492 16 1913 2 523 6 964 10 980 4 17 10 44 13 60
14 77 61 206 108 298 144 283 383 488 695 597 35 12 77 24 95 27 17 2 38 6 46
9 48 18 298 25 398 11 168 -23 358 -95 482 -182 27 -19 52 -35 55 -35 10 0 71
-55 152 -137 171 -173 277 -379 323 -628 18 -96 19 -209 20 -2735 0 -1449 3
-2657 6 -2685 13 -113 67 -244 140 -341 43 -57 131 -142 157 -150 9 -3 17 -9
17 -13 0 -14 173 -88 240 -103 322 -73 655 84 802 377 29 57 55 130 66 183 9
49 9 5435 0 5532 -36 360 -151 719 -330 1033 -73 127 -186 293 -260 380 -48
57 -287 298 -333 337 -206 171 -451 320 -680 415 -49 20 -98 41 -107 46 -10 5
-25 9 -33 9 -8 0 -23 4 -33 9 -53 29 -342 99 -482 116 -30 4 -64 9 -75 12 -25
6 -490 15 -496 9z"/>
</g>
</svg>
